<svg width="38" height="40" viewBox="0 0 38 40" fill="none" xmlns="http://www.w3.org/2000/svg">
<path d="M32.1201 7.85635C27.8837 6.13042 23.4383 5.38342 18.5354 5.38342C13.6324 5.38342 8.84637 6.2053 4.93789 7.81983C4.20003 8.12118 3.54436 8.6417 4.0183 9.60056C4.40276 10.3795 13.6954 30.8616 17.2258 38.1671C17.3448 38.4139 17.5309 38.6221 17.7629 38.7679C17.9949 38.9136 18.2632 38.9909 18.5372 38.9909C18.8111 38.9909 19.0795 38.9136 19.3115 38.7679C19.5435 38.6221 19.7296 38.4139 19.8485 38.1671L33.0031 9.65535C33.2944 9.02524 33.0853 8.24903 32.1201 7.85635V7.85635Z" stroke="white" stroke-width="2" stroke-miterlimit="10"/>
<path d="M35.0076 4.16696C30.2526 2.28578 24.3954 1 18.5354 1C12.6754 1 6.90586 2.16706 2.0504 4.11217C1.62212 4.2875 0.819418 4.69205 1.0395 5.37238L1.92347 7.575C2.28875 8.32382 2.71521 8.32382 3.29874 8.32382C3.4622 8.32382 3.6905 8.2325 3.96355 8.12475C8.61014 6.3199 13.5506 5.39045 18.5354 5.38334C23.7187 5.38334 29.0289 6.47917 33.11 8.12292C33.4378 8.25077 33.6205 8.322 33.7748 8.322C34.3757 8.322 34.7227 8.52199 35.1446 7.58231L36.0368 5.38334C36.2203 4.83542 35.5811 4.39526 35.0076 4.16696Z" stroke="white" stroke-width="2" stroke-miterlimit="10"/>
<path d="M12.6909 17.0722C14.3048 17.0722 15.6131 15.7639 15.6131 14.15C15.6131 12.5361 14.3048 11.2278 12.6909 11.2278C11.077 11.2278 9.76868 12.5361 9.76868 14.15C9.76868 15.7639 11.077 17.0722 12.6909 17.0722Z" fill="white"/>
<path d="M24.3797 18.5334C25.9936 18.5334 27.302 17.2251 27.302 15.6112C27.302 13.9973 25.9936 12.689 24.3797 12.689C22.7658 12.689 21.4575 13.9973 21.4575 15.6112C21.4575 17.2251 22.7658 18.5334 24.3797 18.5334Z" fill="white"/>
<path d="M18.5353 28.7611C20.1492 28.7611 21.4575 27.4528 21.4575 25.8389C21.4575 24.225 20.1492 22.9167 18.5353 22.9167C16.9214 22.9167 15.6131 24.225 15.6131 25.8389C15.6131 27.4528 16.9214 28.7611 18.5353 28.7611Z" fill="white"/>
</svg>
